<svg width="208" height="20" viewBox="0 0 208 20" fill="none" xmlns="http://www.w3.org/2000/svg">
<path fill-rule="evenodd" clip-rule="evenodd" d="M5.51248 9.59659V15.7097H7.56643C7.84908 15.7392 8.06361 15.5563 8.06361 15.1331V10.1998C8.06361 9.81044 7.9404 9.59659 7.56643 9.59659H5.51248ZM0 17.8526V0.0353457L12.331 0.00732422V2.18563L5.51248 2.15466V7.4817H8.28684C9.62038 7.4817 13.5485 7.41386 13.5485 9.8945V15.4044C13.5746 17.4588 10.3756 17.7921 8.32018 17.8246L0 17.8511V17.8526Z" fill="white"/>
<path fill-rule="evenodd" clip-rule="evenodd" d="M23.7777 2.56318L22.2818 10.8428H25.5186L24.0589 2.56318H23.7777ZM15.8286 17.8526L19.8191 0.00732422H28.0074L31.9979 17.8526H26.6419L25.8012 13.3677H22.0035L21.1918 17.8526H15.8301H15.8286Z" fill="white"/>
<path fill-rule="evenodd" clip-rule="evenodd" d="M34.7578 0.00732422H40.179V7.18526L42.6373 7.15281V0.00732422H48.0295V17.8526H42.6373V9.6895H40.179V17.8261L34.7578 17.8526V0.00732422Z" fill="white"/>
<path fill-rule="evenodd" clip-rule="evenodd" d="M52.1519 0.00732422H57.4426V7.23835L60.9301 0.00732422H66.1324L62.1172 8.38281L66.7252 17.8526H61.6461L57.4426 9.74702V17.8526H52.1519V0.00732422Z" fill="white"/>
<path fill-rule="evenodd" clip-rule="evenodd" d="M86.5429 2.52926L85.0456 10.8133H88.32L86.8256 2.52926H86.5429ZM78.6054 17.8541L82.5843 0.00732422H90.7784L94.766 17.8526H89.4072L88.5998 13.3338H84.7658L83.9599 17.8526H78.6025L78.6054 17.8541Z" fill="white"/>
<path fill-rule="evenodd" clip-rule="evenodd" d="M120.366 2.57793L118.871 10.8236H122.112L120.65 2.57793H120.366ZM112.424 17.8526L116.41 0.00732422H124.603L128.592 17.8526H123.237L122.392 13.3426H118.596L117.784 17.8526H112.425H112.424Z" fill="white"/>
<path fill-rule="evenodd" clip-rule="evenodd" d="M166.801 2.57793L165.337 10.8384L168.579 10.8089L167.079 2.57646H166.799M158.896 17.8511L162.875 0.00732422H171.071L175.09 17.8526H169.697L168.86 13.3515H165.055L164.216 17.8526H158.896V17.8511Z" fill="white"/>
<path fill-rule="evenodd" clip-rule="evenodd" d="M136.913 0.00732422V7.19116H139.378V0.0353457L144.797 0.00732422V17.8261L139.378 17.8526V9.70425H136.913V17.8526H131.492V0.0353457L136.913 0.00732422Z" fill="white"/>
<path fill-rule="evenodd" clip-rule="evenodd" d="M102.721 9.72047V15.7097H104.591C104.96 15.7097 105.183 15.4944 105.183 15.1935V10.3871C105.183 9.99036 105.023 9.72047 104.562 9.72047H102.721ZM97.4648 17.8261V17.8526V0.00732422H105.276C110.512 0.00732422 110.354 1.79333 110.354 2.61038V6.29595C110.354 6.84458 110.22 8.47425 107.377 8.38281V8.56421C109.683 8.53767 110.447 9.29425 110.447 10.4166V15.3233C110.447 16.1625 110.129 17.7921 105.241 17.8261H97.4634M102.719 2.15613V7.26785L104.56 7.30177C105.02 7.30177 105.182 7.11889 105.182 6.87555V2.63692C105.182 2.36703 105.056 2.15613 104.589 2.15613H102.719Z" fill="white"/>
<path fill-rule="evenodd" clip-rule="evenodd" d="M149.352 0.00732422H160.074V2.15613H154.615V17.8526H149.352V0.0692665V0.00732422Z" fill="white"/>
<path fill-rule="evenodd" clip-rule="evenodd" d="M182.702 2.15171V9.41076H184.973C185.878 9.4727 185.878 9.08335 185.937 8.65713L185.908 2.8198C185.937 2.15613 185.264 2.13991 184.992 2.15023H182.7M177.405 17.8246V0.00732422H185.624C187.372 0.00732422 190.428 0.00732422 190.428 2.57793V8.72202C190.428 11.3516 187.565 11.4431 185.624 11.4755H182.702V17.8526L177.407 17.8261L177.405 17.8246Z" fill="white"/>
<path fill-rule="evenodd" clip-rule="evenodd" d="M202.189 2.16356H199.09V13.853C199.09 14.7526 198.904 15.5062 197.969 15.8056V15.7776L202.176 15.7599L202.189 2.16356ZM190.936 20V15.841L191.309 15.8071C193.577 15.8071 193.863 14.6022 193.863 13.9724V0.00737409L206.69 0V15.7776H208V20H202.77V17.8305H196.165V20H190.936Z" fill="white"/>
</svg>
