<svg width="47" height="46" viewBox="0 0 47 46" fill="none" xmlns="http://www.w3.org/2000/svg">
<path d="M0 9.89258C0.0286562 9.75175 0.0429842 9.61093 0.0716404 9.48419C0.257905 8.597 0.945653 8.06186 1.91996 8.0337C3.625 7.97737 5.34437 8.00553 7.06374 8.01962C7.98074 8.0337 8.96938 8.65333 9.2846 9.70951C9.55683 10.6108 9.6428 11.5121 9.80041 12.4274C9.88637 12.9344 9.97234 13.4413 10.0297 13.9624C10.0583 14.1596 10.13 14.2018 10.3162 14.2018H39.8177C40.5341 14.2018 41.2362 14.2581 41.8953 14.582C42.755 15.0045 43.1132 15.6382 42.9699 16.5676C42.9126 16.9197 42.8266 17.2577 42.712 17.5816C41.6804 20.4826 40.6488 23.3835 39.6028 26.2845C39.4452 26.7211 39.2589 27.1435 39.044 27.5519C38.4136 28.7771 37.382 29.3545 35.9921 29.3545H13.1532C13.2678 30.0164 13.3824 30.6501 13.4971 31.2838C13.5973 31.8189 13.6976 32.34 13.7836 32.8751C13.8123 33.0722 13.8982 33.1427 14.0988 33.1427H31.9086C33.1552 33.1427 34.3874 33.1286 35.6339 33.1427C35.9778 33.1427 36.336 33.1708 36.6799 33.2553C37.3246 33.4102 37.7258 33.8327 37.8261 34.4946C37.8978 34.9593 37.8548 35.424 37.6828 35.8887C37.4249 36.5788 36.9091 36.9308 36.1784 36.9449C35.2901 36.9731 34.416 36.9731 33.5277 36.9731H17.208C15.9185 36.9731 14.629 36.9308 13.3394 36.9872C11.921 37.0435 11.004 36.4239 10.3449 35.255C9.88637 34.4382 9.68578 33.551 9.49952 32.6498C8.6255 28.2138 7.76582 23.7778 6.89181 19.356C6.49062 17.2858 6.07511 15.2017 5.67392 13.1315C5.64526 12.9485 5.57362 12.8921 5.38736 12.8921C4.42738 12.9062 3.45307 12.864 2.49309 12.9062C1.61907 12.9485 1.01729 12.526 0.573123 11.8782C0.272234 11.4416 0.0859685 10.9206 0.0716404 10.3714C0.0716404 10.2587 0.0429842 10.1601 0.0286562 10.0475C0 9.99115 0 9.94891 0 9.89258Z" fill="#B4B4B4"/>
<path d="M16.3769 38.5503C14.9011 37.8321 13.4397 37.8744 12.0498 38.846C11.4481 39.2685 10.9752 39.8036 10.703 40.4655C10.2603 41.5316 10.3147 42.6258 10.7302 43.551C11.332 44.9071 12.7003 45.9041 14.414 45.9295C14.7149 45.8872 15.0301 45.8732 15.331 45.8028C17.1077 45.3944 18.2109 44.141 18.4832 42.5356C18.5175 42.3328 18.5333 42.1301 18.5319 41.9273C18.5319 40.5402 17.698 39.1925 16.3769 38.5503Z" fill="#B4B4B4"/>
<path d="M34.2627 38.5573C33.7311 38.3207 33.1351 38.1841 32.496 38.1841C30.1176 38.1841 28.4842 40.2683 28.5128 42.0708V42.0736C28.5128 42.0779 28.5128 42.0807 28.5128 42.0849C28.5128 42.1131 28.5157 42.1412 28.5171 42.1708C28.5443 42.8721 28.7621 43.5312 29.1203 44.0987C29.8367 45.238 31.1148 46.0097 32.5677 45.9998C34.7742 45.9857 36.6798 44.2395 36.6368 42.0849C36.6999 40.6288 35.737 39.2022 34.2627 38.5573Z" fill="#B4B4B4"/>
<ellipse cx="35.9434" cy="11.5" rx="11" ry="11.5" fill="#006237"/>
<path d="M31.1494 14.5576V11.9531H28.5244V10.1553H31.1494V7.55078H32.8994V10.1553H35.5312V11.9531H32.8994V14.5576H31.1494ZM41.6289 16H39.708V8.76074C39.0062 9.41699 38.179 9.90234 37.2266 10.2168V8.47363C37.7279 8.30957 38.2725 7.99967 38.8604 7.54395C39.4482 7.08366 39.8516 6.54818 40.0703 5.9375H41.6289V16Z" fill="white"/>
</svg>
