<svg width="17" height="15" viewBox="0 0 17 15" fill="none" xmlns="http://www.w3.org/2000/svg">
<g clip-path="url(#clip0_1061_8019)">
<path d="M0 0.747314C0.0113292 0.691726 0.0169938 0.636137 0.0283229 0.586108C0.101963 0.2359 0.373863 0.0246639 0.759055 0.0135462C1.43314 -0.00868918 2.11289 0.00242852 2.79264 0.00798737C3.15518 0.0135462 3.54603 0.258136 3.67065 0.675049C3.77828 1.03082 3.81227 1.38658 3.87458 1.74791C3.90857 1.94803 3.94255 2.14814 3.96521 2.35382C3.97654 2.43165 4.00486 2.44832 4.0785 2.44832H15.7419C16.0251 2.44832 16.3027 2.47056 16.5633 2.59841C16.9031 2.76518 17.0447 3.01533 16.9881 3.38221C16.9654 3.52118 16.9315 3.65459 16.8861 3.78245C16.4783 4.92757 16.0704 6.07269 15.6569 7.21782C15.5946 7.39014 15.521 7.55691 15.436 7.71811C15.1868 8.20173 14.7789 8.42964 14.2294 8.42964H5.20009C5.24541 8.69091 5.29073 8.94106 5.33604 9.19121C5.3757 9.40244 5.41535 9.60812 5.44933 9.81936C5.46066 9.89718 5.49465 9.92498 5.57396 9.92498H12.615C13.1079 9.92498 13.595 9.91942 14.0878 9.92498C14.2238 9.92498 14.3654 9.93609 14.5013 9.96945C14.7563 10.0306 14.9149 10.1974 14.9545 10.4586C14.9828 10.6421 14.9658 10.8255 14.8979 11.009C14.7959 11.2813 14.592 11.4203 14.3031 11.4259C13.9519 11.437 13.6063 11.437 13.2551 11.437H6.80317C6.29336 11.437 5.78355 11.4203 5.27373 11.4425C4.71294 11.4648 4.3504 11.2202 4.08983 10.7588C3.90857 10.4364 3.82926 10.0862 3.75562 9.73042C3.41008 7.97938 3.07021 6.22834 2.72467 4.48286C2.56606 3.66571 2.40179 2.843 2.24318 2.02585C2.23185 1.95358 2.20353 1.93135 2.12989 1.93135C1.75036 1.93691 1.36517 1.92023 0.985638 1.93691C0.640099 1.95358 0.402186 1.78682 0.226584 1.53111C0.107627 1.35879 0.0339875 1.15311 0.0283229 0.936315C0.0283229 0.891845 0.0169938 0.852933 0.0113292 0.808462C0 0.786226 0 0.76955 0 0.747314Z" fill="white"/>
<path d="M6.47464 12.0593C5.89119 11.7758 5.3134 11.7925 4.76393 12.176C4.52602 12.3428 4.33909 12.554 4.23146 12.8153C4.05642 13.2361 4.07795 13.668 4.24222 14.0332C4.48014 14.5685 5.0211 14.9621 5.69859 14.9721C5.81755 14.9554 5.94217 14.9499 6.06112 14.9221C6.76353 14.7609 7.19971 14.2661 7.30733 13.6324C7.32093 13.5524 7.32716 13.4723 7.32659 13.3923C7.32659 12.8447 6.99691 12.3128 6.47464 12.0593Z" fill="white"/>
<path d="M13.5457 12.0621C13.3356 11.9687 13.0999 11.9148 12.8473 11.9148C11.907 11.9148 11.2612 12.7375 11.2725 13.449V13.4501C11.2725 13.4518 11.2725 13.4529 11.2725 13.4546C11.2725 13.4657 11.2737 13.4768 11.2742 13.4885C11.285 13.7653 11.3711 14.0255 11.5127 14.2495C11.796 14.6992 12.3012 15.0038 12.8756 15C13.748 14.9944 14.5014 14.3051 14.4844 13.4546C14.5093 12.8798 14.1286 12.3167 13.5457 12.0621Z" fill="white"/>
</g>
<defs>
<clipPath id="clip0_1061_8019">
<rect width="17" height="15" fill="white"/>
</clipPath>
</defs>
</svg>
