<svg width="15" height="15" viewBox="0 0 15 15" fill="none" xmlns="http://www.w3.org/2000/svg">
<rect width="15" height="15" fill="#006237"/>
<g clip-path="url(#clip0_1047_18355)">
<path d="M6.34301 9.26682C6.48886 9.04395 6.63176 8.82574 6.77456 8.60752C7.47457 7.53765 8.17458 6.46779 8.8747 5.39792C9.31084 4.73133 9.74709 4.06474 10.1833 3.39804C10.2224 3.33836 10.261 3.27837 10.3002 3.2189C10.4453 2.99952 10.7396 2.9314 10.9546 3.07726C11.2386 3.26992 11.5198 3.46733 11.7976 3.66971C12.0129 3.82666 12.0635 4.12716 11.916 4.35457C11.5817 4.86991 11.2441 5.38271 10.9079 5.89668C10.5709 6.41202 10.2341 6.92757 9.89723 7.44301C9.55554 7.96575 9.21384 8.48858 8.87205 9.01132C8.35706 9.79895 7.84207 10.5866 7.32657 11.374C7.25324 11.4861 7.18347 11.6013 7.10157 11.7064C6.97356 11.8706 6.81087 11.9817 6.60126 11.998C6.4345 12.0111 6.2816 11.9581 6.14095 11.8711C6.06873 11.8264 5.99907 11.7727 5.9396 11.7114C5.00795 10.7488 4.07814 9.78448 3.14812 8.82024C2.95229 8.61723 2.95014 8.30385 3.14465 8.09989C3.37038 7.86319 3.59742 7.62796 3.82569 7.394C4.03336 7.18128 4.32946 7.18318 4.5354 7.39643C5.12648 8.00863 5.71725 8.62114 6.30822 9.23344C6.31771 9.24327 6.32781 9.25235 6.3429 9.26682H6.34301Z" fill="white"/>
</g>
<defs>
<clipPath id="clip0_1047_18355">
<rect width="9" height="9" fill="white" transform="translate(3 3)"/>
</clipPath>
</defs>
</svg>
