<svg width="15" height="15" viewBox="0 0 15 15" fill="none" xmlns="http://www.w3.org/2000/svg">
<g clip-path="url(#clip0_1055_6820)">
<path d="M5.57168 10.4447C5.81477 10.0733 6.05294 9.70956 6.29093 9.34586C7.45762 7.56276 8.62431 5.77965 9.79116 3.99654C10.5181 2.88555 11.2451 1.77457 11.9722 0.663403C12.0373 0.563941 12.1016 0.46395 12.167 0.36484C12.4088 -0.000794799 12.8994 -0.11434 13.2577 0.128771C13.731 0.449867 14.1997 0.778886 14.6626 1.11618C15.0215 1.37777 15.1058 1.87861 14.86 2.25762C14.3029 3.11652 13.7402 3.97119 13.1799 4.8278C12.6182 5.6867 12.0569 6.54595 11.4954 7.40502C10.9259 8.27625 10.3564 9.14764 9.78674 10.0189C8.92843 11.3316 8.07012 12.6443 7.21095 13.9567C7.08873 14.1435 6.97245 14.3355 6.83594 14.5107C6.6226 14.7843 6.35145 14.9695 6.00211 14.9967C5.72416 15.0186 5.46934 14.9302 5.23491 14.7851C5.11455 14.7107 4.99845 14.6212 4.89934 14.519C3.34659 12.9147 1.7969 11.3075 0.246869 9.70041C-0.0795246 9.36206 -0.0830945 8.83975 0.241089 8.49981C0.617292 8.10531 0.995705 7.71327 1.37616 7.32334C1.72227 6.9688 2.21577 6.97197 2.55899 7.32739C3.54413 8.34772 4.52875 9.36857 5.51371 10.3891C5.52952 10.4054 5.54635 10.4206 5.57151 10.4447H5.57168Z" fill="#006237"/>
</g>
<defs>
<clipPath id="clip0_1055_6820">
<rect width="15" height="15" fill="white"/>
</clipPath>
</defs>
</svg>
