<svg width="16" height="18" viewBox="0 0 16 18" fill="none" xmlns="http://www.w3.org/2000/svg">
<path d="M6.81161 17.0508H1.16741C0.523746 17.0508 0 16.5259 0 15.8808V1.94884C0 1.30373 0.523746 0.778809 1.16741 0.778809H12.4558C13.0995 0.778809 13.6232 1.30373 13.6232 1.94884V9.87556C13.6232 10.1768 13.3796 10.421 13.079 10.421C12.7784 10.421 12.5347 10.1768 12.5347 9.87556V1.94884C12.5347 1.9052 12.4993 1.86974 12.4558 1.86974H1.16741C1.12387 1.86974 1.08849 1.9052 1.08849 1.94884V15.8808C1.08849 15.9244 1.12387 15.9599 1.16741 15.9599H6.81161C7.11221 15.9599 7.35585 16.2041 7.35585 16.5053C7.35585 16.8066 7.11221 17.0508 6.81161 17.0508Z" fill="#999999"/>
<path d="M10.1669 4.99242H3.45611C3.15551 4.99242 2.91187 4.74824 2.91187 4.44696C2.91187 4.14568 3.15551 3.90149 3.45611 3.90149H10.1669C10.4675 3.90149 10.7111 4.14568 10.7111 4.44696C10.7111 4.74824 10.4675 4.99242 10.1669 4.99242Z" fill="#999999"/>
<path d="M10.1669 8.19494H3.45611C3.15551 8.19494 2.91187 7.95075 2.91187 7.64947C2.91187 7.34819 3.15551 7.104 3.45611 7.104H10.1669C10.4675 7.104 10.7111 7.34819 10.7111 7.64947C10.7111 7.95075 10.4675 8.19494 10.1669 8.19494Z" fill="#999999"/>
<path d="M6.24828 11.2356H3.45611C3.15551 11.2356 2.91187 10.9914 2.91187 10.6901C2.91187 10.3888 3.15551 10.1447 3.45611 10.1447H6.24828C6.54888 10.1447 6.79252 10.3888 6.79252 10.6901C6.79252 10.9914 6.54888 11.2356 6.24828 11.2356Z" fill="#999999"/>
<path d="M11.1376 16.6424C10.9935 16.6424 10.8549 16.5852 10.7526 16.4826L8.28408 14.0077C8.07165 13.7946 8.07165 13.4493 8.28408 13.2362C8.49652 13.0231 8.84121 13.0233 9.05383 13.2362L11.1109 15.2986L14.8979 10.9576C15.0959 10.7309 15.4397 10.7076 15.6659 10.9059C15.8921 11.1043 15.9151 11.4489 15.7174 11.6756L11.5472 16.4557C11.448 16.5694 11.3063 16.6368 11.1557 16.6419C11.1497 16.6421 11.1436 16.6423 11.1376 16.6423V16.6424Z" fill="#999999"/>
</svg>
