<svg width="17" height="16" viewBox="0 0 17 16" fill="none" xmlns="http://www.w3.org/2000/svg">
<path d="M8.40645 16C6.73222 16 5.058 16 3.38378 16C2.97272 16 2.76904 15.8144 2.76746 15.4193C2.76377 14.5615 2.76746 13.7037 2.77061 12.8454C2.77167 12.5007 2.77483 12.5007 2.42482 12.5002C2.13535 12.5002 1.8464 12.5042 1.55692 12.4992C0.707441 12.4837 0.0105935 11.8375 0.00690921 11.0327C-0.00203822 9.19204 -0.00309086 7.35088 0.00848817 5.51021C0.0137514 4.6419 0.677967 4.02418 1.59166 4.00317C1.8985 3.99617 2.20587 3.99016 2.51167 4.00717C2.72904 4.01917 2.7743 3.93514 2.77272 3.74858C2.76483 2.7157 2.77009 1.68283 2.7664 0.650457C2.76535 0.173785 2.94377 0.00122266 3.44115 0.00122266C6.71064 0.00172284 9.98014 0.00122266 13.2496 0.000222302C13.3196 0.000222302 13.3896 -0.000277878 13.4602 0.000222302C13.876 0.00422375 14.0749 0.183789 14.0765 0.580932C14.0812 1.62181 14.0865 2.66318 14.0723 3.70406C14.0691 3.94415 14.1307 4.02518 14.3886 4.00517C14.676 3.98266 14.9665 4.00067 15.256 4.00167C16.1097 4.00367 16.8244 4.63039 16.8318 5.43819C16.8486 7.31236 16.8481 9.18654 16.8349 11.0607C16.8297 11.8395 16.1302 12.4777 15.3081 12.4982C14.9754 12.5067 14.6418 12.5097 14.3091 12.4962C14.1191 12.4887 14.0739 12.5573 14.0754 12.7253C14.0823 13.5831 14.0775 14.4409 14.0786 15.2987C14.0791 15.8449 13.9186 16 13.3502 15.9995C11.7023 15.999 10.0544 16 8.40645 16ZM8.42118 9.00047C6.99275 9.00047 5.56379 9.00647 4.13536 8.99497C3.88536 8.99297 3.81168 9.04949 3.81273 9.29458C3.8222 11.1102 3.81904 12.9259 3.80957 14.741C3.80852 14.9506 3.87431 15.0051 4.09168 15.0046C6.98381 14.9981 9.87646 14.9981 12.7686 15.0046C12.9765 15.0046 13.0312 14.9526 13.0302 14.7566C13.0223 12.9159 13.0212 11.0752 13.0317 9.23506C13.0328 9.01998 12.9486 8.99647 12.7596 8.99747C11.3133 9.00347 9.86751 8.99997 8.42118 9.00047ZM8.41066 4.00017C9.85593 4.00017 11.3017 3.99617 12.747 4.00467C12.957 4.00567 13.0333 3.96365 13.0302 3.74858C13.0175 2.90777 13.0207 2.06697 13.0291 1.22616C13.0307 1.0581 12.9917 0.996082 12.8002 0.996582C9.88277 1.00208 6.96538 1.00208 4.04852 0.996582C3.85747 0.996582 3.81536 1.0601 3.81641 1.22667C3.82168 2.07597 3.82168 2.92478 3.81062 3.77409C3.80799 3.97116 3.8901 4.00417 4.07431 4.00317C5.51958 3.99717 6.96538 4.00017 8.41066 4.00017ZM14.6486 6.62111C14.9844 6.62711 15.2533 6.38453 15.2612 6.06841C15.2686 5.77131 15.0081 5.51221 14.6902 5.49921C14.3681 5.4862 14.0791 5.7483 14.0775 6.05441C14.0754 6.35952 14.3328 6.61511 14.6486 6.62111Z" fill="#FEFEFE"/>
<path d="M8.43405 12.8007C9.36546 12.8007 10.2964 12.7987 11.2278 12.8015C11.6355 12.8027 11.8853 13.0588 11.7574 13.3385C11.673 13.5235 11.4991 13.605 11.2548 13.5998C10.4333 13.5826 9.6108 13.5838 8.79032 13.5862C7.7285 13.5894 6.66618 13.5838 5.60436 13.5982C5.28606 13.6026 5.09268 13.476 5.05821 13.257C5.01623 12.9881 5.24259 12.8015 5.61585 12.8011C6.55525 12.8003 7.49465 12.8011 8.43455 12.8007H8.43405Z" fill="#FEFEFE"/>
<path d="M8.43405 10.6673C9.36546 10.6673 10.2964 10.6653 11.2278 10.6681C11.6355 10.6693 11.8853 10.9254 11.7574 11.2051C11.673 11.3901 11.4991 11.4716 11.2548 11.4664C10.4333 11.4492 9.6108 11.4504 8.79032 11.4528C7.7285 11.456 6.66618 11.4504 5.60436 11.4648C5.28606 11.4692 5.09268 11.3425 5.05821 11.1236C5.01623 10.8547 5.24259 10.6681 5.61585 10.6677C6.55525 10.6669 7.49465 10.6677 8.43455 10.6673H8.43405Z" fill="#FEFEFE"/>
</svg>
