<svg width="24" height="20" viewBox="0 0 24 20" fill="none" xmlns="http://www.w3.org/2000/svg">
<rect width="24" height="20" rx="5" fill="#D9D9D9"/>
<g clip-path="url(#clip0_1062_9436)">
<path d="M11.9999 14.9999C10.8648 14.9836 9.80249 14.6897 8.78979 14.2016C7.56499 13.6111 6.50043 12.8006 5.52582 11.8681C5.03091 11.3946 4.56782 10.8921 4.1428 10.3561C3.954 10.118 3.95217 9.87051 4.1426 9.63484C5.27624 8.23127 6.58795 7.02492 8.16362 6.1157C8.9869 5.64057 9.86063 5.28998 10.801 5.11238C12.0114 4.88372 13.1896 5.01127 14.3423 5.42213C15.3242 5.77212 16.2142 6.2871 17.0449 6.90559C18.1069 7.69607 19.0442 8.6129 19.8675 9.64385C20.0397 9.8593 20.0476 10.1188 19.874 10.3338C18.6524 11.8473 17.2344 13.1374 15.497 14.058C14.6344 14.5151 13.7222 14.8303 12.746 14.9434C12.4984 14.972 12.2489 14.9814 12.0001 14.9997L11.9999 14.9999ZM18.7622 9.96041C18.7339 9.92537 18.7114 9.89654 18.6877 9.86871C18.1437 9.2336 17.5488 8.64934 16.9001 8.11895C16.0326 7.40955 15.0979 6.80948 14.0358 6.42105C13.0584 6.06365 12.0572 5.94031 11.0251 6.13252C10.184 6.2891 9.40726 6.61046 8.67331 7.03673C7.35958 7.80019 6.25126 8.80151 5.25882 9.93538C5.25274 9.94239 5.25051 9.9528 5.23491 9.98684C5.60219 10.3647 5.9642 10.7605 6.35154 11.1307C7.23114 11.9717 8.19927 12.6947 9.3088 13.2195C10.0667 13.5781 10.8587 13.8161 11.7015 13.8656C12.5578 13.9158 13.3782 13.7511 14.1721 13.4435C15.1808 13.0529 16.0738 12.4736 16.9037 11.7943C17.5781 11.2422 18.1948 10.6326 18.7624 9.96061L18.7622 9.96041Z" fill="white"/>
<path d="M12.0389 12.2551C10.7652 12.2559 9.71143 11.2163 9.71143 9.95912C9.71143 8.70051 10.7636 7.65774 12.0346 7.65674C13.305 7.65574 14.3629 8.69931 14.3639 9.95451C14.3649 11.2109 13.3107 12.2541 12.0389 12.2549V12.2551ZM10.8027 9.98535C10.7999 10.6695 11.3369 11.2103 12.0233 11.2147C12.7187 11.2191 13.2706 10.6843 13.2738 10.003C13.277 9.3182 12.7327 8.77519 12.0409 8.77339C11.3513 8.77159 10.8054 9.30579 10.8025 9.98555L10.8027 9.98535Z" fill="white"/>
</g>
<defs>
<clipPath id="clip0_1062_9436">
<rect width="16" height="10" fill="white" transform="translate(4 5)"/>
</clipPath>
</defs>
</svg>
