<svg width="25" height="25" viewBox="0 0 25 25" fill="none" xmlns="http://www.w3.org/2000/svg">
<g clip-path="url(#clip0_1031_559)">
<path d="M13.7687 20.2171C15.2382 19.8233 16.5318 19.0032 17.5085 17.8458C18.4615 16.7154 19.0511 15.3427 19.2146 13.8783L17.4215 13.6793C17.1661 15.9919 15.5478 17.8668 13.3064 18.4725C10.3193 19.2729 7.24422 17.4975 6.44382 14.5104C5.64343 11.5233 7.41882 8.44822 10.4059 7.64782C11.9139 7.24376 13.4809 7.48273 14.7603 8.262L13.1443 9.83772L16.0151 10.659L18.893 11.468L18.1594 8.57628L17.4231 5.67492L16.0847 6.98064C15.4648 6.54966 14.7826 6.2126 14.0588 5.9896C12.7167 5.57198 11.2944 5.54646 9.93402 5.90583C8.02265 6.41798 6.42119 7.64491 5.4333 9.35598C4.44189 11.0731 4.18359 13.0674 4.69574 14.9788C5.20789 16.8902 6.43482 18.4916 8.14589 19.4795C9.86306 20.4709 11.8573 20.7292 13.7687 20.2171Z" fill="white"/>
</g>
<defs>
<clipPath id="clip0_1031_559">
<rect width="18" height="18" fill="white" transform="translate(24.5885 9) rotate(120)"/>
</clipPath>
</defs>
</svg>
